{"title":"ALL ACCESS Mayweather vs Berto Episode 3 720p WEB-DL x264 -={SPA","uid":12402031,"size":250469387,"categoryP":"video","categoryS":"hd___tv_shows","magnet":"?xt=urn:btih:ba84268f577777b74d8cf47053654aa756e43e29&amp;dn=ALL+ACCESS+Mayweather+vs+Berto+Episode+3+720p+WEB-DL+x264+-%3D%7BSPA&amp;tr=udp%3A%2F%2Ftracker.openbittorrent.com%3A80&amp;tr=udp%3A%2F%2Fopen.demonii.com%3A1337&amp;tr=udp%3A%2F%2Ftracker.coppersurfer.tk%3A6969&amp;tr=udp%3A%2F%2Fexodus.desync.com%3A6969","seeders":14,"leechers":2,"uploader":"SS132203","files":2,"time":1442041565,"description":"ALL ACCESS Mayweather vs Berto Episode 3 720p WEB-DL x264 -={SPARROW}=-\n &lt;a href=&quot;\nhttp://imgsparrow.co/image/8Zd&quot; rel=&quot;nofollow&quot; target=&quot;_NEW&quot;&gt;\nhttp://imgsparrow.co/image/8Zd&lt;/a&gt;\n\nInfo : - \n\nFormat                      : MPEG-4\nFormat profile              : Base Media / Version 2\nCodec ID                    : mp42\nFile size                   : 239 MiB\nDuration                    : 14mn 32s\nOverall bit rate mode       : Variable\nOverall bit rate            : 2 296 Kbps\n\nVideo\nID                          : 1\nFormat                      : AVC\nFormat/Info                 : Advanced Video Codec\nFormat profile              : &lt;a class=&quot;__cf_email__&quot; href=&quot;/cdn-cgi/l/email-protection&quot; data-cfemail=&quot;064e6f616e464a352837&quot;&gt;[email&amp;#160;protected]&lt;/a&gt;&lt;script data-cfhash='f9e31' type=&quot;text/javascript&quot;&gt;\n/* &lt;![CDATA[ */!function(){try{var t=&quot;currentScript&quot;in document?document.currentScript:function(){for(var t=document.getElementsByTagName(&quot;script&quot;),e=t.length;e--;)if(t[e].getAttribute(&quot;data-cfhash&quot;))return t[e]}();if(t&amp;&amp;t.previousSibling){var e,r,n,i,c=t.previousSibling,a=c.getAttribute(&quot;data-cfemail&quot;);if(a){for(e=&quot;&quot;,r=parseInt(a.substr(0,2),16),n=2;a.length-n;n+=2)i=parseInt(a.substr(n,2),16)^r,e+=String.fromCharCode(i);e=document.createTextNode(e),c.parentNode.replaceChild(e,c)}t.parentNode.removeChild(t);}}catch(u){}}()/* ]]&gt; */&lt;/script&gt;\nFormat settings, CABAC      : Yes\nFormat settings, ReFrames   : 1 frame\nCodec ID                    : avc1\nCodec ID/Info               : Advanced Video Coding\nDuration                    : 14mn 32s\nBit rate                    : 2 101 Kbps\nMaximum bit rate            : 5 678 Kbps\nWidth                       : 1 280 pixels\nHeight                      : 720 pixels\nDisplay aspect ratio        : 16:9\nFrame rate mode             : Constant\nFrame rate                  : 29.970 fps\nColor space                 : YUV\nChroma subsampling          : 4:2:0\nBit depth                   : 8 bits\nScan type                   : Progressive\nBits/(Pixel*Frame)          : 0.076\nStream size                 : 219 MiB (92%)\n\nAudio\nID                          : 2\nFormat                      : AAC\nFormat/Info                 : Advanced Audio Codec\nFormat profile              : LC\nCodec ID                    : 40\nDuration                    : 14mn 32s\nBit rate mode               : Variable\nBit rate                    : 192 Kbps\nMaximum bit rate            : 202 Kbps\nChannel(s)                  : 2 channels\nChannel positions           : Front: L R\nSampling rate               : 44.1 KHz\nCompression mode            : Lossy\nStream size                 : 20.0 MiB (8%)\n\nScreens : - \n &lt;a href=&quot;\nhttp://imgsparrow.co/image/8ac&quot; rel=&quot;nofollow&quot; target=&quot;_NEW&quot;&gt;\nhttp://imgsparrow.co/image/8ac&lt;/a&gt;\n &lt;a href=&quot;\nhttp://imgsparrow.co/image/8nG&quot; rel=&quot;nofollow&quot; target=&quot;_NEW&quot;&gt;\nhttp://imgsparrow.co/image/8nG&lt;/a&gt;","torrent":{"xt":"urn:btih:ba84268f577777b74d8cf47053654aa756e43e29","amp;dn":"ALL+ACCESS+Mayweather+vs+Berto+Episode+3+720p+WEB-DL+x264+-%3D%7BSPA","amp;tr":["udp%3A%2F%2Ftracker.openbittorrent.com%3A80","udp%3A%2F%2Fopen.demonii.com%3A1337","udp%3A%2F%2Ftracker.coppersurfer.tk%3A6969","udp%3A%2F%2Fexodus.desync.com%3A6969"],"infoHash":"ba84268f577777b74d8cf47053654aa756e43e29","infoHashBuffer":{"type":"Buffer","data":[186,132,38,143,87,119,119,183,77,140,244,112,83,101,74,167,86,228,62,41]},"announce":[],"urlList":[]}}